<svg fill="none" height="900" viewBox="0 0 734 900" width="734" xmlns="http://www.w3.org/2000/svg" xmlns:xlink="http://www.w3.org/1999/xlink"><filter id="a" color-interpolation-filters="sRGB" filterUnits="userSpaceOnUse" height="825.617" width="1090.5" x="-618" y="74.3827"><feFlood flood-opacity="0" result="BackgroundImageFix"/><feBlend in="SourceGraphic" in2="BackgroundImageFix" mode="normal" result="shape"/><feGaussianBlur result="effect1_foregroundBlur" stdDeviation="125"/></filter><filter id="b" color-interpolation-filters="sRGB" filterUnits="userSpaceOnUse" height="825.617" width="1090.5" x="-357.258" y="0"><feFlood flood-opacity="0" result="BackgroundImageFix"/><feBlend in="SourceGraphic" in2="BackgroundImageFix" mode="normal" result="shape"/><feGaussianBlur result="effect1_foregroundBlur" stdDeviation="125"/></filter><filter id="c" color-interpolation-filters="sRGB" filterUnits="userSpaceOnUse" height="530.189" width="729.165" x="-345.848" y="174.693"><feFlood flood-opacity="0" result="BackgroundImageFix"/><feBlend in="SourceGraphic" in2="BackgroundImageFix" mode="normal" result="shape"/><feGaussianBlur result="effect1_foregroundBlur" stdDeviation="75"/></filter><g opacity=".5"><g filter="url(#a)"><path d="m-9.42734 559.065c-124.01866-44.786-197.37466 11.614-218.55066 45.413-68.267 68.276-110.934 44.891-123.734 24.664-36.504-61.333-35.272-203.418 261.6913-281.089 296.9627-77.671 328.5367 54.287 307.2027 129.974-23.862 45.674-102.59 125.825-226.60934 81.038z" fill="#7c7cff"/></g><g filter="url(#b)"><path d="m251.315 340.935c-124.019 44.786-197.3749-11.614-218.5504-45.413-68.2673-68.276-110.9344-44.891-123.7345-24.664-36.5041 61.333-35.2711 203.418 261.6909 281.089 296.963 77.671 328.537-54.287 307.203-129.974-23.862-45.674-102.59-125.825-226.609-81.038z" fill="#c0a9c7"/></g><g filter="url(#c)"><ellipse fill="#77e3ef" rx="203.627" ry="72.2783" transform="matrix(-.934064 .357107 -.489029 -.872268 18.7344 439.788)"/><ellipse rx="203.627" ry="72.2783" stroke="#9e00ff" stroke-width="40" transform="matrix(-.934064 .357107 -.489029 -.872268 18.7344 439.788)"/></g></g></svg>