<?xml version="1.0" encoding="UTF-8"?>
<svg width="700pt" height="700pt" version="1.1" viewBox="0 0 700 700" xmlns="http://www.w3.org/2000/svg" fill="white">
 <g>
  <path d="m541.06 43.895c2.8945-0.15625 6.2539 0.050781 8.5156 0.43359l1.4883-9.25c-3.2344-0.57031-6.5117-0.75391-10.18-0.57031l0.17578 9.3828z"/>
  <path d="m522.23 43.863v-9.3633h9.3633v9.3633z"/>
  <path d="m503.48 43.863v-9.3633h9.3711v9.3633z"/>
  <path d="m484.72 43.863v-9.3633h9.375v9.3633z"/>
  <path d="m465.96 43.863v-9.3633h9.375v9.3633z"/>
  <path d="m447.21 43.863v-9.3633h9.3828v9.3633z"/>
  <path d="m428.45 43.863v-9.3633h9.3867v9.3633z"/>
  <path d="m409.69 43.863v-9.3633h9.3867v9.3633z"/>
  <path d="m390.94 43.863v-9.3633h9.375v9.3633z"/>
  <path d="m372.18 43.863v-9.3633h9.375v9.3633z"/>
  <path d="m355.52 45.312c2.6133-0.91016 4.6719-1.3242 7.2773-1.4453v-9.3633c-4.8359 0-7.7109 0.89062-10.895 2.1484z"/>
  <path d="m341.15 54.035-6.6367-6.6367c2.7812-2.7891 4.5391-3.8555 8.4531-6.2852l4.7344 8.1016c-3.2344 1.6836-5.0352 3.2969-6.5508 4.8164z"/>
  <path d="m327.89 67.293-6.6328-6.6328 6.625-6.625 6.6328 6.6328z"/>
  <path d="m314.63 80.566-6.6484-6.6484 6.6367-6.625 6.6367 6.6367z"/>
  <path d="m301.37 93.824-6.6445-6.6445 6.6328-6.625 6.6367 6.6367z"/>
  <path d="m288.11 107.09-6.6445-6.6445 6.6367-6.625 6.6328 6.6328z"/>
  <path d="m274.84 120.35-6.6367-6.6367 6.6367-6.6367 6.6367 6.6367z"/>
  <path d="m261.58 133.61-6.6328-6.6367 6.6328-6.6367 6.6367 6.6367z"/>
  <path d="m248.32 146.87-6.6367-6.6328 6.625-6.6367 6.6445 6.6445z"/>
  <path d="m235.06 160.13-6.6367-6.6367 6.625-6.6328 6.6484 6.6445z"/>
  <path d="m221.8 173.39-6.6328-6.6367 6.625-6.6367 6.6445 6.6484z"/>
  <path d="m208.54 186.65-6.6367-6.6328 6.625-6.625 6.6367 6.6328z"/>
  <path d="m195.28 199.92-6.6445-6.6484 6.6328-6.625 6.6367 6.6367z"/>
  <path d="m182.02 213.18-6.6445-6.6445 6.6367-6.625 6.6328 6.6367z"/>
  <path d="m168.76 226.44-6.6484-6.6445 6.6367-6.625 6.6367 6.6328z"/>
  <path d="m155.48 239.7-6.6328-6.6367 6.6328-6.6367 6.6367 6.6367z"/>
  <path d="m142.23 252.96-6.6367-6.6328 6.6367-6.6367 6.6328 6.6367z"/>
  <path d="m128.96 266.22-6.6367-6.6367 6.625-6.6328 6.6484 6.6445z"/>
  <path d="m115.7 279.48-6.6367-6.6367 6.6289-6.6367 6.6445 6.6484z"/>
  <path d="m102.44 292.74-6.6328-6.6328 6.625-6.6367 6.6445 6.6445z"/>
  <path d="m92.77 306.02c0.96094-2.7188 1.9648-4.6602 3.5977-6.957l-7.4219-5.7266c-2.7891 3.9062-3.4414 5.5312-5.043 9.582z"/>
  <path d="m93.266 321.32c-0.94922-2.4922-1.4883-5.2109-1.5508-7.7188l-9.375 0.23828c0.19531 3.8125 0.65234 6.3672 2.0664 10.582z"/>
  <path d="m103.51 334.24-6.6367 6.6367c-2.1289-2.1289-4.8906-4.5977-6.875-7.0078l7.2344-5.9727c-0.019531-0.03125 4.3203 4.3828 6.2734 6.3477z"/>
  <path d="m116.77 347.5-6.6367 6.6367-6.6367-6.625 6.6484-6.6445z"/>
  <path d="m130.03 360.76-6.6328 6.6367-6.6367-6.625 6.6445-6.6484z"/>
  <path d="m143.29 374.02-6.6367 6.6328-6.6328-6.625 6.6445-6.6328z"/>
  <path d="m156.55 387.28-6.6367 6.6484-6.625-6.6367 6.6367-6.6367z"/>
  <path d="m170.67 401.4-6.6367 6.6328-6.6328-6.625 6.6445-6.6445z"/>
  <path d="m176.43 420.45-3.9375-3.9492 6.6367-6.6328 3.9492 3.9375 3.9375 3.9492-6.6367 6.6445z"/>
  <path d="m552.99 55.82c0.16406-2.8945-0.050781-6.2539-0.43359-8.5156l9.25-1.4883c0.57031 3.2461 0.75391 6.5117 0.57031 10.18l-9.3828-0.17578z"/>
  <path d="m553.02 74.652h9.3672v-9.3633h-9.3672z"/>
  <path d="m553.02 93.414h9.3672v-9.3867h-9.3672z"/>
  <path d="m553.02 112.16h9.3672v-9.375h-9.3672z"/>
  <path d="m553.02 130.92h9.3672v-9.375h-9.3672z"/>
  <path d="m553.02 149.68h9.3672v-9.375h-9.3672z"/>
  <path d="m553.02 168.44h9.3672v-9.3828h-9.3672z"/>
  <path d="m553.02 187.2h9.3672v-9.3828h-9.3672z"/>
  <path d="m553.02 205.96h9.3672v-9.3867h-9.3672z"/>
  <path d="m553.02 224.7h9.3672v-9.3711h-9.3672z"/>
  <path d="m551.57 241.37c0.91016-2.6133 1.3242-4.6719 1.4453-7.2773h9.3633c0 4.8359-0.89062 7.7109-2.1484 10.895z"/>
  <path d="m542.85 255.73 6.6367 6.6367c2.7891-2.7812 3.8555-4.5391 6.2852-8.4531l-8.1016-4.7344c-1.6836 3.2344-3.2969 5.0352-4.8164 6.5508z"/>
  <path d="m529.59 268.99 6.6367 6.6445 6.6328-6.6328-6.6445-6.6367z"/>
  <path d="m516.33 282.25 6.6367 6.6445 6.625-6.6367-6.6367-6.6328z"/>
  <path d="m503.06 295.51 6.6445 6.6484 6.625-6.6367-6.6328-6.6367z"/>
  <path d="m489.8 308.79 6.6484 6.6328 6.625-6.6328-6.6367-6.6367z"/>
  <path d="m476.54 322.05 6.6445 6.6328 6.625-6.6328-6.6367-6.6367z"/>
  <path d="m463.28 335.3 6.6367 6.6367 6.6328-6.625-6.6328-6.6445z"/>
  <path d="m450.02 348.57 6.6367 6.6367 6.6367-6.625-6.6367-6.6484z"/>
  <path d="m436.76 361.83 6.6328 6.6328 6.6367-6.625-6.6445-6.6445z"/>
  <path d="m423.5 375.09 6.6367 6.6367 6.6328-6.625-6.6445-6.6367z"/>
  <path d="m410.23 388.35 6.6367 6.6445 6.6367-6.6328-6.6484-6.6367z"/>
  <path d="m396.98 401.61 6.6328 6.6445 6.625-6.6367-6.6328-6.6328z"/>
  <path d="m383.7 414.87 6.6484 6.6484 6.625-6.6367-6.6367-6.6367z"/>
  <path d="m370.45 428.14 6.6445 6.6328 6.625-6.6328-6.6367-6.6367z"/>
  <path d="m357.18 441.4 6.6445 6.6367 6.625-6.6367-6.6328-6.6328z"/>
  <path d="m343.92 454.66 6.6367 6.6367 6.6367-6.625-6.6367-6.6484z"/>
  <path d="m330.66 467.92 6.6328 6.6328 6.6367-6.625-6.6367-6.6445z"/>
  <path d="m317.4 481.18 6.6367 6.6367 6.6328-6.625-6.6445-6.6445z"/>
  <path d="m304.14 494.44 6.6367 6.6367 6.6328-6.625-6.6445-6.6367z"/>
  <path d="m290.86 504.12c2.7188-0.96094 4.6602-1.9648 6.957-3.5977l5.7266 7.4219c-3.9062 2.7891-5.5312 3.4414-9.582 5.043z"/>
  <path d="m275.56 503.62c2.4922 0.94922 5.2188 1.4883 7.7188 1.5508l-0.23828 9.375c-3.8125-0.19531-6.3672-0.65234-10.582-2.0664z"/>
  <path d="m262.64 493.38-6.6367 6.6367c2.1289 2.1289 4.5977 4.8906 7.0078 6.875l5.9844-7.2344c0.019531 0.019531-4.3945-4.3086-6.3555-6.2734z"/>
  <path d="m249.38 480.12-6.6328 6.6367 6.625 6.6328 6.6445-6.6328z"/>
  <path d="m236.12 466.86-6.6367 6.6367 6.625 6.6367 6.6445-6.6484z"/>
  <path d="m222.86 453.59-6.6367 6.6367 6.625 6.6367 6.6445-6.6445z"/>
  <path d="m209.6 440.34-6.6367 6.6328 6.625 6.6367 6.6367-6.6445z"/>
  <path d="m195.63 426.36-6.6367 6.6328 6.625 6.6367 6.6367-6.6445z"/>
  <path d="m511.97 85.383c12.91 12.898 12.91 33.816 0 46.727-12.898 12.898-33.816 12.898-46.715 0-12.898-12.91-12.898-33.828 0-46.727 12.898-12.898 33.816-12.898 46.715 0zm-15.648 15.66c-4.2695-4.2578-11.152-4.2578-15.41 0-4.2578 4.2578-4.2578 11.152 0 15.41 4.2578 4.2578 11.141 4.2578 15.41 0 4.2578-4.2578 4.2578-11.152 0-15.41z"/>
  <path d="m301.12 294.49 45.816-45.809c-14.211-12.332-32.867-15.906-47.16-1.6133-14.418 14.406-8.332 32.297 1.3438 47.418zm-85.629 85.629c-11.02-11.02-18.336-22.613-19.887-38.449-1.8086-17.527 7.8047-40.309 27.16-41.973 10.066-0.85938 20.062 7.1953 19.988 17.57-0.14453 11.152-10.23 18.449-20.941 17.012-13.074-1.7969-15.719 1.0234-11.43 15.629 2.293 7.7305 6.7812 14.965 13.559 21.758l56.566-56.555c-16.527-26.254-22.004-51.938 1.7969-75.738 21.902-21.891 50.469-17.797 72.586 1.3438l11.699-11.699 9.6016 9.6016-11.504 11.504c9.7656 11.34 15.34 22.871 16.652 34.613 1.6211 14.562-6.2734 34.719-22.719 35.418-9.0938 0.30859-18.551-8.207-18.48-17.438 0.082031-9.3242 8.5781-17.219 17.965-15.668 10.23 1.6211 12.359-0.50781 8.8477-11.793-1.8398-5.9648-5.3125-11.598-10.43-16.98l-48.887 48.898c16.578 28.062 26.023 55.77 0.19531 81.59-24.773 24.773-56.617 22.047-82.746 0.96094l-12.629 12.629-9.6016-9.6016 12.629-12.629zm18.449 0.75391c16.898 13.82 37.445 15.379 53.488-0.66016 17.621-17.621 10.551-33.086-0.39453-52.434z"/>
  <path d="m631.71 330.66-212.34 210.52c-29.113 28.867-67.844 22.355-95.066-4.8672-26.387 19.711-63.645 17.125-87.004-6.2227l-170.02-170.03c-25.891-25.891-25.891-68.309 0-94.199l243.55-243.55c10.902-10.902 33.551-22.312 49.156-22.312l188.34 0.03125c26.324-0.011719 47.977 21.645 47.957 47.969l0.03125 9.4688 9.6836 0.011719c25.293 0 46.105 20.848 46.117 46.117l0.019531 178.97c0 15.895-9.2305 36.906-20.422 48.102zm-291.27 190.47c18.285 18.285 43.562 24.215 63.398 4.3828l212.33-210.52c7.0391-7.0391 13.82-22.438 13.82-32.441l0.042969-178.94c-0.03125-13.105-10.934-24.008-24.039-24.008l-9.6836-0.011719-0.03125 156.73c0.019532 16.422-9.6641 38.633-21.238 50.211l-234.6 234.6zm-24.609-6.707 243.55-243.55c7.4844-7.4844 14.844-23.887 14.82-34.52v-188.39c0-14.066-11.793-25.859-25.848-25.859l-188.38 0.03125c-9.6758 0-26.758 9.0859-33.496 15.836l-243.56 243.55c-17.281 17.293-17.281 45.602 0 62.883l170.03 170.03c17.27 17.262 45.621 17.262 62.883 0z"/>
 </g>
</svg>
