<svg xmlns="http://www.w3.org/2000/svg" viewBox="0 0 46.21 48.825" x="0px" y="0px" fill="rgb(108, 223, 236)"><title>Recurso 2</title><g data-name="Capa 2"><g data-name="Capa 1"><path d="M45.77.43A1.52,1.52,0,0,0,44.16.1L1,17.16A1.51,1.51,0,0,0,0,18.57,1.49,1.49,0,0,0,1,20l12.8,4.92.26.2.14,12.5a1.44,1.44,0,0,0,.1.5s0,0,0,0a1.38,1.38,0,0,0,.31.47v0h0a1.41,1.41,0,0,0,.5.33h0a1.47,1.47,0,0,0,.56.11h0a1.45,1.45,0,0,0,.51-.1l0,0a1.41,1.41,0,0,0,.46-.3h0l6.6-6.45,7.28,5.57a1.49,1.49,0,0,0,.91.31,1.4,1.4,0,0,0,.41-.06,1.48,1.48,0,0,0,1-.91L46.12,2A1.51,1.51,0,0,0,45.77.43ZM17.12,34,17,27.39l3.86,2.95Zm13.69.11L17.48,24,34.33,12.81a1.5,1.5,0,0,0-1.66-2.5L14.85,22.09,5.63,18.54,42.12,4.14Z"/></g></g></svg>